<?xml version="1.0" standalone="no"?>
<!DOCTYPE svg PUBLIC "-//W3C//DTD SVG 20010904//EN"
 "http://www.w3.org/TR/2001/REC-SVG-20010904/DTD/svg10.dtd">
<svg version="1.0" xmlns="http://www.w3.org/2000/svg"
 width="360.000000pt" height="360.000000pt" viewBox="0 0 360.000000 360.000000"
 preserveAspectRatio="xMidYMid meet">

<g transform="translate(0.000000,360.000000) scale(0.100000,-0.100000)"
fill="#000000" stroke="none">
<path d="M1 3503 c1 -132 7 -149 47 -145 27 2 32 -1 33 -20 3 -56 5 -63 22
-66 9 -2 17 1 17 7 0 6 9 11 21 11 l20 0 -20 -26 c-25 -31 -27 -64 -6 -64 9 0
19 -8 22 -17 4 -10 11 -21 16 -25 6 -4 4 -13 -6 -23 -23 -23 -21 -53 8 -104
14 -23 25 -58 25 -77 0 -27 4 -34 20 -34 14 0 20 -7 20 -24 0 -13 7 -29 15
-36 13 -11 14 -10 9 4 -3 9 -1 16 5 16 6 0 12 -4 12 -10 3 -20 5 -25 16 -45
10 -17 12 -17 13 -3 0 9 -6 19 -13 21 -9 4 -9 6 1 6 7 1 10 6 7 11 -3 6 0 10
8 10 8 0 18 7 21 16 5 13 1 15 -20 10 -17 -5 -23 -3 -19 4 3 5 1 10 -6 10 -7
0 -4 6 7 14 10 8 21 10 22 5 5 -14 34 -11 30 3 -3 7 5 18 16 24 12 6 20 16 18
23 -4 19 26 61 44 61 8 0 17 6 20 14 8 21 34 28 34 10 0 -8 -4 -13 -9 -10 -5
3 -15 -1 -22 -10 -11 -13 -9 -15 17 -9 16 3 22 2 14 -2 -16 -9 -19 -31 -7 -50
5 -9 3 -13 -7 -13 -9 0 -16 4 -16 9 0 12 -49 20 -56 10 -3 -5 3 -12 13 -15 58
-19 74 -29 79 -50 3 -13 9 -23 13 -22 3 0 14 0 24 -1 28 -2 19 -18 -12 -23
-22 -3 -31 0 -34 14 -3 10 -11 18 -17 18 -10 0 -10 -3 0 -15 12 -15 0 -22 -14
-8 -13 13 -31 10 -48 -8 -22 -23 -8 -32 27 -19 33 13 48 13 40 0 -8 -13 1 -13
25 0 11 6 21 6 24 1 3 -5 -4 -12 -17 -16 -18 -6 -19 -8 -5 -12 9 -2 20 -13 23
-23 5 -16 12 -18 37 -13 20 4 29 2 25 -4 -4 -6 -30 -13 -59 -17 -33 -5 -47
-10 -39 -15 7 -5 22 -6 32 -4 15 4 19 0 19 -18 -1 -21 -2 -22 -11 -6 -6 10
-15 14 -22 10 -17 -11 -38 -13 -32 -3 3 5 0 10 -6 12 -8 3 -6 10 6 21 23 24 6
43 -45 52 -27 4 -41 13 -45 26 -10 29 -40 20 -41 -12 -1 -21 3 -25 18 -21 14
3 17 0 12 -12 -5 -12 -15 -16 -35 -12 -16 2 -29 0 -29 -6 0 -14 29 -40 38 -34
5 3 6 -8 4 -25 -3 -24 -7 -27 -18 -18 -11 9 -14 8 -14 -5 0 -9 -12 -19 -27
-23 -26 -6 -24 -8 26 -23 34 -11 48 -19 38 -23 -9 -3 -15 -18 -15 -41 0 -30 4
-36 22 -36 18 -1 16 -3 -9 -15 -29 -13 -29 -14 -7 -20 12 -4 22 -11 22 -16 0
-5 6 -9 14 -9 8 0 17 -3 20 -8 2 -4 -13 -6 -34 -4 -47 5 -56 -8 -29 -42 24
-30 11 -35 -16 -6 -10 11 -20 18 -23 15 -3 -3 8 -17 24 -32 16 -15 28 -28 27
-30 -9 -11 0 -21 22 -25 20 -4 23 -3 14 8 -6 7 -14 13 -17 12 -19 -2 -25 3
-13 11 8 5 27 5 43 0 24 -7 28 -6 19 5 -9 10 -8 15 5 20 22 8 44 8 42 -1 -4
-13 26 -72 39 -77 15 -6 55 28 45 39 -4 4 3 1 15 -6 13 -8 23 -18 23 -22 0 -5
15 -5 33 -2 l32 7 -20 -22 -20 -23 34 17 c18 10 42 15 53 13 11 -3 21 0 24 8
3 8 17 12 32 10 15 -2 37 3 50 11 23 15 47 10 36 -7 -7 -13 47 0 61 14 7 7 6
8 -2 3 -9 -5 -13 0 -13 13 0 11 9 22 19 26 13 4 17 12 14 25 -3 11 -10 17 -17
14 -6 -3 -2 2 9 11 12 9 21 11 23 5 2 -5 13 -10 23 -10 11 0 18 -4 15 -9 -3
-5 0 -8 7 -8 6 1 30 -7 52 -17 22 -10 55 -25 73 -32 23 -10 32 -19 28 -29 -6
-18 -1 -19 26 -4 18 10 20 9 14 -7 -4 -10 -4 -15 0 -12 14 14 45 -13 39 -33
-5 -14 -2 -19 10 -19 12 0 16 -6 12 -20 -3 -10 -1 -20 5 -22 5 -2 10 -14 11
-27 1 -14 9 -26 19 -29 10 -2 15 -8 12 -13 -3 -5 -9 -7 -13 -5 -4 3 -8 -1 -8
-9 0 -8 8 -15 18 -15 10 0 20 -4 24 -9 3 -5 17 -7 32 -5 14 3 29 0 33 -6 13
-21 2 -83 -19 -111 -12 -16 -21 -32 -21 -37 0 -11 -117 -122 -129 -122 -4 0
-20 -9 -35 -21 -15 -11 -33 -19 -40 -16 -16 7 -108 -61 -101 -74 10 -15 -13
-19 -25 -4 -14 17 -40 20 -40 5 0 -5 -7 -10 -16 -10 -8 0 -22 -6 -30 -14 -12
-13 -12 -17 2 -30 8 -9 12 -16 9 -16 -4 0 3 -8 16 -19 l23 -18 -21 -18 c-12
-10 -19 -24 -16 -31 6 -16 44 -19 58 -5 15 14 85 25 85 13 0 -6 -4 -12 -9 -14
-5 -2 -3 -12 6 -23 11 -14 17 -16 20 -7 3 6 10 12 18 12 17 0 16 -49 -3 -78
-8 -12 -12 -25 -9 -28 14 -14 129 -31 164 -24 50 10 73 20 73 32 0 5 25 20 55
33 48 22 55 29 65 66 11 40 12 41 48 34 69 -12 69 -12 82 -81 18 -97 20 -441
2 -477 -7 -16 -13 -43 -12 -60 1 -18 1 -36 0 -42 -1 -5 -2 -13 -1 -17 0 -5 -4
-8 -10 -8 -5 0 -8 -4 -4 -9 3 -5 1 -12 -4 -16 -6 -3 -8 -12 -4 -20 3 -8 0 -15
-6 -15 -6 0 -11 4 -11 10 0 5 -10 8 -22 6 -13 -3 -27 -5 -31 -5 -5 -1 -6 -5
-3 -9 8 -13 -10 -33 -31 -35 -13 0 -19 -6 -16 -14 6 -16 -13 -18 -22 -2 -5 6
-12 4 -20 -8 -7 -10 -11 -21 -9 -25 5 -8 1 -9 -48 -12 -14 0 -30 -4 -34 -8
-12 -13 -26 -9 -19 5 4 6 -5 0 -19 -15 -14 -16 -30 -28 -36 -28 -15 0 -12 -26
4 -43 11 -11 12 -17 3 -26 -8 -8 -7 -11 5 -11 8 0 23 10 32 22 l17 23 -7 -24
c-5 -19 -3 -22 11 -14 9 5 22 21 29 34 8 18 19 23 37 21 14 -2 31 4 39 12 15
19 129 23 146 6 6 -6 22 -12 35 -14 31 -4 69 -17 69 -23 0 -11 -35 -38 -49
-38 -32 0 -43 -16 -36 -52 4 -22 2 -40 -7 -51 -10 -12 -10 -14 0 -8 7 4 12 2
12 -8 0 -8 6 -17 13 -20 6 -4 3 -5 -8 -3 -28 5 -41 -12 -43 -56 -1 -37 -1 -37
38 -37 21 0 42 -5 45 -10 4 -6 16 -8 27 -4 11 3 18 2 15 -2 -8 -15 12 -56 24
-48 8 4 9 3 5 -5 -4 -6 -11 -9 -16 -6 -5 3 -20 0 -34 -7 -19 -8 -25 -17 -20
-30 3 -10 0 -18 -6 -18 -8 0 -10 -11 -6 -35 6 -30 5 -34 -10 -28 -13 5 -16 3
-11 -10 3 -9 3 -16 -1 -15 -4 1 -17 -3 -29 -10 -14 -8 -24 -9 -28 -2 -4 6 -11
8 -16 5 -5 -4 -9 -1 -9 5 0 12 -41 4 -50 -10 -3 -4 -15 -12 -27 -18 -19 -10
-20 -9 -16 8 3 11 9 17 14 14 5 -3 9 0 9 5 0 17 -28 13 -38 -4 -11 -20 -43 -9
-35 12 4 10 0 14 -13 11 -12 -2 -23 7 -32 25 -10 21 -19 27 -33 24 -21 -6 -27
9 -7 15 10 4 10 10 0 32 -18 40 -15 55 15 67 17 7 23 13 15 16 -7 3 -18 0 -25
-6 -7 -5 -24 -7 -37 -4 -22 6 -23 5 -8 -16 21 -29 12 -60 -21 -73 l-26 -10 27
-10 c16 -6 25 -15 22 -23 -3 -7 0 -24 7 -37 19 -37 120 -136 174 -171 28 -17
52 -35 53 -39 2 -5 487 -8 1078 -8 l1074 0 0 1800 0 1800 -1800 0 -1800 0 1
-97z m1644 -13 c3 -5 2 -10 -4 -10 -5 0 -13 5 -16 10 -3 6 -2 10 4 10 5 0 13
-4 16 -10z m-958 -52 c-3 -8 -6 -5 -6 6 -1 11 2 17 5 13 3 -3 4 -12 1 -19z
m263 -28 c-8 -5 -24 -10 -35 -10 -17 0 -17 2 -5 10 8 5 24 10 35 10 17 0 17
-2 5 -10z m47 4 c-3 -3 -12 -4 -19 -1 -8 3 -5 6 6 6 11 1 17 -2 13 -5z m249
-28 c10 -8 16 -17 13 -20 -9 -10 -40 5 -33 15 3 5 1 9 -5 9 -5 0 -13 -5 -16
-10 -4 -6 -11 -7 -17 -4 -6 4 -5 10 3 15 20 12 32 11 55 -5z m-56 -36 c0 -5
-5 -10 -11 -10 -5 0 -7 5 -4 10 3 6 8 10 11 10 2 0 4 -4 4 -10z m285 0 c3 -6
-1 -7 -9 -4 -18 7 -21 14 -7 14 6 0 13 -4 16 -10z m-740 -10 c-3 -5 -11 -10
-16 -10 -6 0 -7 5 -4 10 3 6 11 10 16 10 6 0 7 -4 4 -10z m505 -4 c-36 -14
-46 -13 -37 1 3 5 20 9 39 10 l33 2 -35 -13z m-317 -13 c-7 -2 -19 -2 -25 0
-7 3 -2 5 12 5 14 0 19 -2 13 -5z m-13 -23 c0 -5 -2 -10 -4 -10 -3 0 -8 5 -11
10 -3 6 -1 10 4 10 6 0 11 -4 11 -10z m860 0 c0 -5 -2 -10 -4 -10 -3 0 -8 5
-11 10 -3 6 -1 10 4 10 6 0 11 -4 11 -10z m-1055 -10 c-3 -5 -11 -10 -16 -10
-6 0 -7 5 -4 10 3 6 11 10 16 10 6 0 7 -4 4 -10z m551 -6 c-7 -19 11 -57 25
-49 5 4 7 10 4 15 -7 12 48 20 65 8 12 -8 12 -9 -2 -4 -10 3 -18 1 -18 -3 0
-5 -14 -14 -31 -20 -24 -8 -34 -8 -44 3 -8 7 -11 16 -8 20 18 18 -24 2 -45
-16 -23 -22 -24 -22 -20 -3 1 11 14 30 27 42 28 27 56 31 47 7z m-666 -14 c0
-5 -5 -10 -11 -10 -5 0 -7 5 -4 10 3 6 8 10 11 10 2 0 4 -4 4 -10z m-10 -29
c0 -5 -18 -24 -41 -42 l-41 -32 22 -17 c14 -10 18 -20 12 -24 -5 -3 -12 1 -16
9 -3 8 -11 15 -18 15 -9 0 -9 -3 -2 -8 7 -5 7 -14 -2 -30 -7 -15 -14 -20 -19
-13 -8 15 3 49 28 85 l20 28 -24 -7 c-21 -7 -21 -6 6 18 29 26 75 36 75 18z
m382 -43 c-7 -7 -16 -7 -28 0 -14 8 -13 10 10 10 18 0 24 -4 18 -10z m238 7
c0 -2 -9 -9 -20 -15 -16 -9 -20 -8 -20 5 0 8 9 15 20 15 11 0 20 -2 20 -5z
m-180 -15 c0 -5 8 -10 17 -10 40 0 0 -11 -58 -15 l-64 -6 35 20 c38 22 70 27
70 11z m71 -7 c13 -16 12 -17 -3 -4 -10 7 -18 15 -18 17 0 8 8 3 21 -13z
m-621 -13 c0 -5 -8 -10 -17 -10 -15 0 -16 2 -3 10 19 12 20 12 20 0z m110 0
c0 -5 -7 -10 -15 -10 -8 0 -15 5 -15 10 0 6 7 10 15 10 8 0 15 -4 15 -10z
m247 -6 c-3 -3 -12 -4 -19 -1 -8 3 -5 6 6 6 11 1 17 -2 13 -5z m-37 -24 c-13
-9 -13 -11 -1 -19 11 -7 4 -14 -30 -29 -65 -29 -76 -32 -76 -17 0 7 5 11 12 9
6 -3 28 11 48 31 20 19 42 35 49 35 9 0 9 -3 -2 -10z m-95 -30 c4 -6 -6 -7
-27 -3 -44 8 -48 13 -10 13 17 0 34 -4 37 -10z m-168 -17 c-4 -3 -2 -12 3 -19
8 -9 4 -12 -15 -10 -30 1 -31 4 -7 22 18 14 30 19 19 7z m-135 -19 c-12 -8
-28 -13 -35 -11 -7 3 -1 9 13 15 37 16 47 14 22 -4z m372 -26 c-17 -19 -17
-21 -1 -15 47 18 51 18 28 -1 -14 -11 -31 -18 -38 -15 -7 3 -19 1 -26 -4 -17
-14 -58 -23 -51 -12 3 5 12 9 20 9 8 0 14 5 14 10 0 19 5 25 35 41 37 21 44
16 19 -13z m59 -34 c-17 -13 -17 -13 1 -14 29 0 6 -19 -26 -22 -18 -2 -24 -7
-20 -17 4 -11 1 -13 -12 -8 -10 4 -23 7 -29 7 -7 0 -6 4 3 10 13 9 13 11 0 20
-11 7 -7 10 18 10 18 0 40 8 50 18 9 11 21 17 25 14 5 -2 0 -10 -10 -18z
m-293 6 c0 -5 -4 -10 -9 -10 -6 0 -13 5 -16 10 -3 6 1 10 9 10 9 0 16 -4 16
-10z m395 -20 c-3 -5 -10 -10 -16 -10 -5 0 -9 5 -9 10 0 6 7 10 16 10 8 0 12
-4 9 -10z m-410 -30 c10 -11 25 -20 33 -20 18 0 7 -13 -13 -16 -8 -1 -15 2
-15 8 0 5 -8 7 -17 4 -14 -4 -18 0 -19 19 -2 30 7 32 31 5z m-195 0 c-20 -13
-33 -13 -25 0 3 6 14 10 23 10 15 0 15 -2 2 -10z m561 -33 c-10 -9 -11 -8 -5
6 3 10 9 15 12 12 3 -3 0 -11 -7 -18z m-64 -14 c-9 -2 -15 -9 -12 -14 4 -5 2
-9 -4 -9 -5 0 -12 4 -15 9 -7 10 11 20 34 19 10 0 9 -2 -3 -5z m-137 -63 c-13
-9 -13 -10 0 -10 12 -1 11 -3 -3 -11 -10 -6 -25 -8 -34 -5 -22 9 2 36 31 36
17 0 18 -2 6 -10z m-330 -10 c0 -5 -2 -10 -4 -10 -3 0 -8 5 -11 10 -3 6 -1 10
4 10 6 0 11 -4 11 -10z m200 -30 c13 -9 13 -10 0 -10 -8 0 -22 5 -30 10 -13 9
-13 10 0 10 8 0 22 -5 30 -10z m85 -10 c-3 -5 -13 -10 -21 -10 -8 0 -12 5 -9
10 3 6 13 10 21 10 8 0 12 -4 9 -10z m-225 -77 c0 -20 -18 -16 -30 6 -16 31
-12 42 10 24 11 -10 20 -23 20 -30z m200 27 c13 -8 12 -10 -3 -10 -10 0 -15
-4 -12 -10 3 -5 -1 -10 -9 -10 -9 0 -16 -4 -16 -9 0 -5 -7 -12 -16 -15 -12 -4
-15 -2 -10 9 3 8 1 15 -4 15 -6 0 -10 5 -10 11 0 5 4 8 9 5 5 -3 14 1 21 9 14
17 29 19 50 5z m-255 -60 c-3 -4 1 -11 7 -13 7 -3 3 -6 -9 -6 -16 -1 -20 3
-16 19 3 11 9 17 14 14 5 -3 7 -9 4 -14z m294 11 c9 -6 2 -10 -23 -13 -34 -4
-44 1 -29 15 9 10 35 8 52 -2z m-202 -7 c-3 -3 -12 -4 -19 -1 -8 3 -5 6 6 6
11 1 17 -2 13 -5z m-37 -20 c0 -8 -4 -12 -10 -9 -5 3 -10 10 -10 16 0 5 5 9
10 9 6 0 10 -7 10 -16z m230 -4 c0 -5 -4 -10 -10 -10 -5 0 -10 5 -10 10 0 6 5
10 10 10 6 0 10 -4 10 -10z m-214 -115 c-3 -8 -1 -15 5 -15 6 0 7 -5 3 -11
-10 -16 -26 5 -18 24 3 9 8 17 11 17 3 0 3 -7 -1 -15z m-39 -22 c-9 -2 -15 -9
-12 -14 4 -5 1 -9 -4 -9 -12 0 -14 13 -4 23 3 4 13 6 22 6 13 -1 12 -2 -2 -6z
m83 -68 c9 -10 9 -15 1 -15 -6 0 -14 -1 -18 -2 -3 -2 -7 5 -9 15 -3 21 9 22
26 2z m-100 -41 c0 -8 -5 -12 -10 -9 -6 4 -8 11 -5 16 9 14 15 11 15 -7z m231
-4 c-13 -11 -37 -20 -55 -20 l-31 1 38 14 c21 7 41 16 44 19 4 3 11 6 17 6 6
-1 0 -10 -13 -20z m-93 -3 c-16 -6 -28 -14 -28 -19 0 -4 -5 -8 -11 -8 -8 0 -9
4 0 13 6 8 9 16 6 18 -2 3 10 5 28 6 l32 1 -27 -11z m7 -27 c3 -5 2 -10 -4
-10 -5 0 -13 5 -16 10 -3 6 -2 10 4 10 5 0 13 -4 16 -10z m-5 -24 c0 -2 -7 -7
-16 -10 -8 -3 -12 -2 -9 4 6 10 25 14 25 6z m567 -642 c-3 -3 -12 -4 -19 -1
-8 3 -5 6 6 6 11 1 17 -2 13 -5z m1653 -234 c0 -11 -4 -20 -10 -20 -5 0 -10 9
-10 20 0 11 5 20 10 20 6 0 10 -9 10 -20z m-882 -273 c3 -24 0 -27 -28 -27
-35 0 -49 21 -28 44 21 23 52 13 56 -17z m-318 -381 c0 -2 -8 -10 -17 -17 -16
-13 -17 -12 -4 4 13 16 21 21 21 13z m140 -172 c0 -9 -5 -14 -12 -12 -18 6
-21 28 -4 28 9 0 16 -7 16 -16z m73 -333 c-2 -6 4 -11 12 -11 8 0 15 -4 15
-10 0 -13 -17 -13 -25 0 -4 6 -10 8 -15 5 -10 -6 -21 20 -12 29 9 10 27 0 25
-13z m-106 -93 c-3 -8 -6 -5 -6 6 -1 11 2 17 5 13 3 -3 4 -12 1 -19z m-36 -61
c-10 -9 -11 -8 -5 6 3 10 9 15 12 12 3 -3 0 -11 -7 -18z m-96 -27 c3 -5 1 -10
-4 -10 -6 0 -11 5 -11 10 0 6 2 10 4 10 3 0 8 -4 11 -10z"/>
<path d="M395 2950 c-3 -5 -1 -10 4 -10 6 0 11 5 11 10 0 6 -2 10 -4 10 -3 0
-8 -4 -11 -10z"/>
<path d="M426 2941 c-4 -5 -20 -12 -36 -16 -44 -10 -44 -20 0 -21 22 -1 37 3
34 8 -3 4 2 8 10 8 9 0 16 4 16 9 0 14 -18 23 -24 12z"/>
<path d="M358 2883 c7 -3 16 -2 19 1 4 3 -2 6 -13 5 -11 0 -14 -3 -6 -6z"/>
<path d="M190 2853 c0 -17 29 -45 63 -60 37 -17 37 -17 24 16 -6 17 -14 28
-18 25 -4 -2 -10 0 -14 5 -3 6 -13 7 -21 4 -9 -3 -20 0 -25 8 -6 10 -9 10 -9
2z"/>
<path d="M254 2765 c11 -8 24 -15 30 -15 5 0 1 7 -10 15 -10 8 -23 14 -29 14
-5 0 -1 -6 9 -14z"/>
<path d="M286 2727 c3 -10 9 -15 12 -12 3 3 0 11 -7 18 -10 9 -11 8 -5 -6z"/>
<path d="M300 2621 c0 -6 4 -13 10 -16 6 -3 7 1 4 9 -7 18 -14 21 -14 7z"/>
<path d="M250 2601 c0 -5 7 -11 14 -14 10 -4 13 -1 9 9 -6 15 -23 19 -23 5z"/>
<path d="M241 2556 c-12 -15 -5 -24 17 -20 6 1 17 2 23 3 6 0 4 7 -5 16 -18
18 -21 19 -35 1z"/>
<path d="M308 2503 c7 -3 16 -2 19 1 4 3 -2 6 -13 5 -11 0 -14 -3 -6 -6z"/>
<path d="M436 2365 c10 -8 24 -14 29 -14 6 0 1 6 -9 14 -11 8 -24 15 -30 15
-5 0 -1 -7 10 -15z"/>
<path d="M706 2309 c-15 -14 -22 -16 -27 -7 -6 9 -16 7 -38 -10 -35 -25 -49
-29 -31 -7 10 12 10 15 -1 15 -16 -1 -69 -29 -55 -30 5 0 2 -7 -5 -17 -13 -15
-10 -16 26 -10 l40 6 -40 -13 c-22 -7 -42 -9 -43 -4 -2 5 -15 2 -29 -7 -14 -9
-47 -23 -74 -31 -27 -8 -49 -21 -49 -28 0 -38 24 -126 35 -126 14 0 25 -44 25
-100 0 -34 17 -56 40 -52 3 0 5 -17 5 -39 0 -21 -3 -39 -6 -39 -8 0 -39 -92
-39 -114 0 -9 4 -16 9 -16 14 0 19 -50 8 -86 -6 -19 -15 -34 -21 -34 -5 0 -3
-6 6 -12 24 -19 29 -60 12 -92 -13 -26 -13 -31 1 -46 11 -13 13 -24 5 -51 -6
-18 -10 -62 -10 -96 0 -55 -2 -63 -19 -63 -11 0 -21 6 -24 13 -2 6 -8 0 -12
-15 -4 -14 -2 -35 5 -47 7 -15 8 -27 0 -40 -5 -11 -10 -33 -10 -48 0 -16 -8
-45 -18 -65 -14 -26 -19 -62 -21 -134 -1 -55 -6 -100 -12 -102 -5 -2 -9 -21
-9 -43 0 -35 -3 -39 -25 -39 -23 0 -25 4 -25 40 0 38 -2 40 -27 37 -15 -2 -30
-10 -33 -18 -4 -8 -12 -24 -19 -36 -7 -15 -7 -23 -1 -23 23 0 9 -39 -17 -48
-16 -6 -22 -11 -15 -11 9 -1 3 -12 -14 -31 -17 -18 -31 -25 -35 -19 -4 8 -13
8 -28 0 -18 -10 -19 -14 -8 -34 17 -30 39 -57 47 -57 4 0 12 10 18 22 6 13 11
17 11 11 1 -15 41 -18 41 -3 0 6 7 10 15 10 8 0 15 -9 15 -20 0 -11 -4 -20
-10 -20 -5 0 -10 -8 -10 -18 0 -11 -17 -25 -49 -40 -60 -27 -61 -27 -61 1 0
20 -5 23 -50 25 l-50 2 0 -225 0 -225 332 2 c322 3 333 4 343 23 5 11 19 30
31 41 l21 21 16 -30 c9 -16 17 -35 17 -43 0 -12 30 -14 169 -14 l168 0 8 78
c12 119 7 304 -7 295 -5 -2 -8 7 -8 20 0 14 -7 30 -15 37 -8 7 -15 19 -15 26
0 8 -4 14 -10 14 -5 0 -9 10 -7 22 1 16 -5 23 -31 30 -28 7 -31 11 -22 28 11
21 -3 70 -20 70 -6 0 -9 4 -5 10 6 10 -13 50 -30 62 -6 5 -5 8 3 8 9 0 9 5 2
17 -17 30 -33 77 -31 91 1 6 -2 12 -6 12 -5 0 -10 12 -11 28 -3 35 -42 164
-54 177 -6 6 -13 4 -19 -7 -6 -10 -15 -18 -20 -18 -6 0 -1 13 11 30 19 27 20
31 6 58 -8 16 -13 32 -10 34 2 3 -3 22 -11 42 -9 20 -13 41 -10 45 6 11 -43
101 -56 101 -5 0 -9 11 -9 25 0 14 -8 33 -17 43 -10 10 -19 25 -21 33 -2 7 -7
16 -10 19 -4 3 -9 14 -10 25 -6 31 -76 145 -89 145 -7 0 -10 6 -7 14 3 8 0 34
-7 57 -9 36 -13 40 -19 24 -6 -17 -8 -15 -12 10 -4 17 -2 33 4 36 7 4 6 13 -1
27 -16 30 -13 59 6 66 18 7 30 -6 40 -44 16 -62 42 -110 58 -104 8 3 15 2 15
-3 0 -10 34 -53 42 -53 3 0 4 10 3 23 -1 12 4 37 12 55 9 21 12 49 8 75 -3 23
-8 69 -11 102 -6 84 -15 135 -23 135 -4 0 -12 -5 -19 -12 -17 -17 -16 5 1 32
10 17 9 22 -1 29 -10 6 -10 10 2 20 11 9 15 9 19 -1 4 -12 7 12 7 78 0 24 7
34 27 43 20 9 28 9 34 0 11 -18 61 -2 57 19 -2 11 -11 16 -26 14 -17 -3 -25 2
-29 17 -3 12 -9 21 -13 21 -5 0 -7 11 -5 25 3 30 -3 31 -29 4z m-136 -99 c0
-5 -2 -10 -4 -10 -3 0 -8 5 -11 10 -3 6 -1 10 4 10 6 0 11 -4 11 -10z m-115
-51 c16 -16 -20 -10 -41 7 -18 14 -18 15 6 8 14 -3 29 -10 35 -15z m225 -23
c0 -2 -8 -10 -17 -17 -16 -13 -17 -12 -4 4 13 16 21 21 21 13z m-190 -16 c-8
-5 -24 -9 -35 -9 l-20 0 20 9 c11 5 27 9 35 9 13 1 13 0 0 -9z m-198 -1522
c-7 -28 -13 -34 -40 -36 -27 -3 -32 0 -32 17 0 12 5 21 10 21 6 0 10 9 10 20
0 13 7 20 20 20 11 0 20 6 20 13 0 7 5 4 11 -5 6 -11 6 -30 1 -50z m540 -417
c3 -23 -1 -32 -18 -41 -30 -16 -54 -2 -29 17 12 8 14 13 5 13 -9 0 -8 6 5 20
25 27 32 25 37 -9z m-48 -69 c3 -5 2 -18 -1 -31 -6 -22 -6 -22 -20 -1 -14 20
-10 40 7 40 5 0 11 -4 14 -8z"/>
<path d="M344 2298 c-4 -15 -1 -25 12 -35 24 -17 28 -17 50 10 10 12 12 16 4
10 -18 -16 -38 -17 -22 -1 9 9 7 14 -6 24 -24 18 -30 17 -38 -8z"/>
<path d="M425 2260 c6 -10 -19 -20 -53 -20 -24 -1 -25 -2 -9 -11 21 -12 71 -3
87 15 8 10 6 15 -10 19 -11 3 -18 2 -15 -3z"/>
<path d="M1100 2260 c0 -5 5 -10 11 -10 5 0 7 5 4 10 -3 6 -8 10 -11 10 -2 0
-4 -4 -4 -10z"/>
<path d="M385 2200 c-3 -6 1 -7 9 -4 18 7 21 14 7 14 -6 0 -13 -4 -16 -10z"/>
<path d="M405 1890 c-4 -6 3 -10 14 -10 25 0 27 6 6 13 -8 4 -17 2 -20 -3z"/>
<path d="M991 1784 c0 -11 3 -14 6 -6 3 7 2 16 -1 19 -3 4 -6 -2 -5 -13z"/>
<path d="M700 1618 c-11 -70 -11 -76 6 -82 23 -9 30 0 13 20 -8 9 -12 27 -11
40 2 13 1 24 -2 24 -3 0 -6 -1 -6 -2z"/>
<path d="M697 1513 c-8 -7 4 -34 13 -28 4 2 5 -6 3 -18 -3 -14 2 -29 13 -38
16 -13 17 -12 11 20 -4 18 -7 39 -7 46 0 14 -25 27 -33 18z"/>
<path d="M358 1493 c-22 -5 -23 -17 -4 -32 12 -10 17 -8 25 8 12 22 5 30 -21
24z"/>
<path d="M1280 1275 c0 -8 -16 -19 -38 -25 -38 -10 -62 -40 -62 -75 0 -8 -4
-15 -8 -15 -15 0 -37 -109 -24 -122 6 -6 8 -16 5 -23 -6 -17 34 -30 51 -16 7
6 15 9 17 6 3 -2 27 15 53 38 44 38 48 46 50 92 2 28 10 65 19 82 18 35 22 73
8 73 -5 0 -12 -12 -16 -27 l-7 -28 -14 28 c-16 29 -34 36 -34 12z"/>
<path d="M1408 1043 c7 -3 16 -2 19 1 4 3 -2 6 -13 5 -11 0 -14 -3 -6 -6z"/>
<path d="M1452 1029 c4 -11 68 -54 68 -45 0 8 -54 56 -63 56 -5 0 -7 -5 -5
-11z"/>
<path d="M1511 941 c-9 -16 -8 -18 9 -14 21 6 26 18 11 28 -6 3 -15 -3 -20
-14z"/>
<path d="M1350 820 c0 -5 5 -10 11 -10 5 0 7 5 4 10 -3 6 -8 10 -11 10 -2 0
-4 -4 -4 -10z"/>
<path d="M23 682 c-21 -3 -23 -9 -23 -58 0 -46 3 -54 18 -54 11 0 32 12 48 26
16 14 39 29 52 34 12 6 22 18 22 29 0 13 8 21 23 23 26 5 -108 4 -140 0z"/>
<path d="M1178 366 c-4 -18 -1 -26 8 -26 16 0 18 18 5 38 -6 10 -10 7 -13 -12z"/>
<path d="M1142 336 c7 -8 15 -12 17 -11 5 6 -10 25 -20 25 -5 0 -4 -6 3 -14z"/>
<path d="M1305 270 c-3 -6 1 -7 9 -4 18 7 21 14 7 14 -6 0 -13 -4 -16 -10z"/>
</g>
</svg>
